<svg fill="#FF6200" id="Icons" xmlns="http://www.w3.org/2000/svg" viewBox="0 0 100 100">
  <g id="Gray">
    <g>
      <path d="m50.02,41.49c-4.19,0-7.61,3.41-7.61,7.61v3.44h-.68c-1.86,0-3.37,1.51-3.37,3.37v13.71c0,1.86,1.51,3.37,3.37,3.37h16.58c1.86,0,3.37-1.51,3.37-3.37v-13.71c0-1.86-1.51-3.37-3.37-3.37h-.68v-3.44c0-4.19-3.41-7.61-7.61-7.61Zm-4.71,7.61c0-2.59,2.11-4.71,4.71-4.71s4.71,2.11,4.71,4.71v3.44h-9.41v-3.44Zm12.99,6.34c.26,0,.47.21.47.47v13.71c0,.26-.21.47-.47.47h-16.58c-.26,0-.47-.21-.47-.47v-13.71c0-.26.21-.47.47-.47h16.58Z"></path>
      <path d="m50.02,66.33c1.35,0,2.45-1.1,2.45-2.45,0-.81-.4-1.52-1-1.96v-2.02c0-.8-.65-1.45-1.45-1.45s-1.45.65-1.45,1.45v2.02c-.6.45-1,1.16-1,1.96,0,1.35,1.1,2.45,2.45,2.45Z"></path>
      <path d="m85.14,49.4l2.26,1.99h-10.92c-.8,0-1.45.65-1.45,1.45s.65,1.45,1.45,1.45h10.92l-2.26,1.99c-.6.53-.66,1.45-.13,2.05.29.33.69.49,1.09.49.34,0,.68-.12.96-.36l5.15-4.53s.02-.03.03-.04c.11-.1.18-.22.26-.35.03-.04.06-.08.09-.13.08-.18.13-.37.13-.58s-.05-.4-.13-.58c-.02-.05-.06-.08-.08-.13-.07-.13-.15-.25-.26-.35-.01-.01-.01-.03-.03-.04l-5.15-4.53c-.6-.53-1.52-.47-2.05.13-.53.6-.47,1.52.13,2.05Z"></path>
      <path d="m91.52,64.42h-10.92l2.26-1.99c.6-.53.66-1.45.13-2.05-.29-.33-.69-.49-1.09-.49-.34,0-.68.12-.96.36l-5.15,4.53s-.02.03-.03.04c-.11.1-.18.22-.26.35-.03.04-.06.08-.08.13-.08.18-.13.37-.13.58s.05.4.13.58c.02.05.06.08.08.13.07.13.15.25.26.35.01.01.02.03.03.04l5.15,4.53c.6.53,1.52.47,2.05-.13.53-.6.47-1.52-.13-2.05l-2.26-1.99h10.92c.8,0,1.45-.65,1.45-1.45s-.65-1.45-1.45-1.45Z"></path>
      <path d="m85,76.67c0-.8-.65-1.45-1.45-1.45s-1.45.65-1.45,1.45v2.43c0,1.13-.92,2.04-2.04,2.04H20.49c-1.4,0-2.55-1.14-2.55-2.55v-41.28c0-1.49,1.21-2.7,2.71-2.7h58.72c1.51,0,2.73,1.23,2.73,2.74v2.13h0v2.55c0,.8.65,1.45,1.45,1.45s1.45-.65,1.45-1.45v-.55h0v-4.13c0-3.11-2.53-5.64-5.64-5.64h-3.36v-1.88c0-2.94-2.39-5.34-5.34-5.34h-28.19v-3.35c0-2.87-2.34-5.21-5.21-5.21H12.24c-2.87,0-5.21,2.34-5.21,5.21v55.54c0,4.06,3.3,7.36,7.36,7.36h6.1s59.57,0,59.57,0c2.69,0,4.87-2.15,4.93-4.83h.01v-.12h0v-1.54h0v-.9Zm-69.3,4.48h-1.31c-2.46,0-4.46-2-4.46-4.46V27.16h22.71c.8,0,1.45-.65,1.45-1.45s-.65-1.45-1.45-1.45H9.93v-3.11c0-1.27,1.04-2.31,2.31-2.31h25.03c1.27,0,2.31,1.04,2.31,2.31v4.8c0,.8.65,1.45,1.45,1.45h29.64c1.34,0,2.44,1.09,2.44,2.44v1.88H20.65c-3.09,0-5.61,2.51-5.61,5.61v41.28c0,.92.25,1.78.66,2.55Z"></path>
    </g>
  </g>
</svg>