<svg fill="#FF6200" id="Icons" xmlns="http://www.w3.org/2000/svg" viewBox="0 0 100 100">
  <g id="Gray">
    <g>
      <path d="m25.98,50.58c-.84,0-1.52.68-1.52,1.52v6.78c0,2.06,1.68,3.73,3.73,3.73h43.9c2.15,0,3.9-1.75,3.9-3.9v-6.61c0-.84-.68-1.52-1.52-1.52s-1.52.68-1.52,1.52v6.61c0,.48-.39.87-.87.87H28.2c-.39,0-.7-.31-.7-.7v-6.78c0-.84-.68-1.52-1.52-1.52Z"></path>
      <path d="m74.49,40.04c.84,0,1.52-.68,1.52-1.52v-10.96c0-2.17-1.76-3.93-3.93-3.93H28.35c-2.14,0-3.88,1.74-3.88,3.88v11.02c0,.84.68,1.52,1.52,1.52s1.52-.68,1.52-1.52v-11.02c0-.47.38-.85.85-.85h43.73c.49,0,.89.4.89.89v10.96c0,.84.68,1.52,1.52,1.52Z"></path>
      <path d="m82.79,50.58c-.84,0-1.52.68-1.52,1.52v10.14c0,3.13-2.55,5.68-5.68,5.68H25.25c-3.36,0-6.1-2.74-6.1-6.1v-9.72c0-.84-.68-1.52-1.52-1.52s-1.52.68-1.52,1.52v9.72c0,5.04,4.1,9.14,9.14,9.14h12.14l-2.52,10.68h-8.77c-.84,0-1.52.68-1.52,1.52s.68,1.52,1.52,1.52h48.21c.84,0,1.52-.68,1.52-1.52s-.68-1.52-1.52-1.52h-8.76l-2.52-10.68h12.56c4.81,0,8.71-3.91,8.71-8.71v-10.14c0-.84-.68-1.52-1.52-1.52Zm-20.36,31.06h-24.45l2.52-10.68h19.41l2.52,10.68Z"></path>
      <path d="m17.64,40.06c.84,0,1.52-.68,1.52-1.52v-14.09c0-3.36,2.73-6.09,6.09-6.09h49.48c3.61,0,6.55,2.94,6.55,6.55v13.63c0,.84.68,1.52,1.52,1.52s1.52-.68,1.52-1.52v-13.63c0-5.28-4.3-9.58-9.58-9.58H25.25c-5.03,0-9.13,4.09-9.13,9.13v14.09c0,.84.68,1.52,1.52,1.52Z"></path>
      <path d="m89.39,43.71h-19.64l-10.37-11.18c-.3-.32-.74-.51-1.15-.49-.44.01-.85.21-1.13.55l-10.34,12.47-5.59-6.11c-.29-.31-.69-.49-1.12-.49h0c-.43,0-.84.18-1.12.5l-4.47,4.97H10.61c-.84,0-1.52.68-1.52,1.52s.68,1.52,1.52,1.52h24.53c.43,0,.84-.18,1.13-.5l3.8-4.22,5.64,6.16c.29.31.69.49,1.12.49.01,0,.02,0,.04,0,.44-.01.85-.21,1.13-.55l10.35-12.48,9.64,10.4c.29.31.69.49,1.11.49h20.3c.84,0,1.52-.68,1.52-1.52s-.68-1.52-1.52-1.52Z"></path>
    </g>
  </g>
</svg>