<svg fill="#FF6200" id="Icons" xmlns="http://www.w3.org/2000/svg" viewBox="0 0 100 100">
  <g id="Gray">
    <g>
      <g>
        <path d="m38.92,60.42c-4.86,0-8.81-3.95-8.81-8.81s3.95-8.81,8.81-8.81,8.81,3.95,8.81,8.81-3.95,8.81-8.81,8.81Zm0-14.79c-3.3,0-5.98,2.68-5.98,5.98s2.68,5.98,5.98,5.98,5.98-2.68,5.98-5.98-2.68-5.98-5.98-5.98Z"></path>
        <path d="m38.92,54.62c-1.66,0-3.01-1.35-3.01-3.01s1.35-3.01,3.01-3.01,3.01,1.35,3.01,3.01-1.35,3.01-3.01,3.01Z"></path>
        <path d="m38.92,42.08c-2.81,0-5.1-2.29-5.1-5.1s2.29-5.1,5.1-5.1,5.1,2.29,5.1,5.1-2.29,5.1-5.1,5.1Zm0-7.36c-1.25,0-2.27,1.02-2.27,2.27s1.02,2.27,2.27,2.27,2.27-1.02,2.27-2.27-1.02-2.27-2.27-2.27Z"></path>
        <path d="m52.41,49.66c-2.81,0-5.1-2.29-5.1-5.1s2.29-5.1,5.1-5.1,5.1,2.29,5.1,5.1-2.29,5.1-5.1,5.1Zm0-7.36c-1.25,0-2.27,1.02-2.27,2.27s1.02,2.27,2.27,2.27,2.27-1.02,2.27-2.27-1.02-2.27-2.27-2.27Z"></path>
        <path d="m52.41,64.09c-2.81,0-5.1-2.29-5.1-5.1s2.29-5.1,5.1-5.1,5.1,2.29,5.1,5.1-2.29,5.1-5.1,5.1Zm0-7.36c-1.25,0-2.27,1.02-2.27,2.27s1.02,2.27,2.27,2.27,2.27-1.02,2.27-2.27-1.02-2.27-2.27-2.27Z"></path>
        <path d="m25.43,49.66c-2.81,0-5.1-2.29-5.1-5.1s2.29-5.1,5.1-5.1,5.1,2.29,5.1,5.1-2.29,5.1-5.1,5.1Zm0-7.36c-1.25,0-2.27,1.02-2.27,2.27s1.02,2.27,2.27,2.27,2.27-1.02,2.27-2.27-1.02-2.27-2.27-2.27Z"></path>
        <path d="m25.43,64.09c-2.81,0-5.1-2.29-5.1-5.1s2.29-5.1,5.1-5.1,5.1,2.29,5.1,5.1-2.29,5.1-5.1,5.1Zm0-7.36c-1.25,0-2.27,1.02-2.27,2.27s1.02,2.27,2.27,2.27,2.27-1.02,2.27-2.27-1.02-2.27-2.27-2.27Z"></path>
        <path d="m38.92,71.57c-2.81,0-5.1-2.29-5.1-5.1s2.29-5.1,5.1-5.1,5.1,2.29,5.1,5.1-2.29,5.1-5.1,5.1Zm0-7.36c-1.25,0-2.27,1.02-2.27,2.27s1.02,2.27,2.27,2.27,2.27-1.02,2.27-2.27-1.02-2.27-2.27-2.27Z"></path>
      </g>
      <path d="m61.78,26.97H15.62c-4.7,0-8.51,3.82-8.51,8.51v32.02c0,4.7,3.82,8.52,8.52,8.52h21.89v5.73h-2.29c-2.09,0-3.84,1.38-4.44,3.27H14.2c-.78,0-1.42.63-1.42,1.42s.63,1.42,1.42,1.42h16.58c.6,1.89,2.36,3.27,4.44,3.27h7.66c2.09,0,3.84-1.38,4.44-3.27h16.34c.78,0,1.42-.63,1.42-1.42s-.63-1.42-1.42-1.42h-16.34c-.6-1.89-2.35-3.27-4.44-3.27h-2.54v-5.73h22.25c4.48,0,8.13-3.65,8.13-8.13v-31.98c0-4.93-4.01-8.94-8.94-8.94Zm-18.9,57.62c1.02,0,1.85.83,1.85,1.85s-.83,1.85-1.85,1.85h-7.66c-1.02,0-1.85-.83-1.85-1.85s.83-1.85,1.85-1.85h7.66Zm25.01-16.69c0,2.92-2.38,5.3-5.3,5.3H15.63c-3.14,0-5.69-2.55-5.69-5.69v-32.02c0-3.13,2.55-5.68,5.68-5.68h46.16c3.37,0,6.11,2.74,6.11,6.11v31.98Z"></path>
      <path d="m81.27,21.01c-.56,0-1.11.05-1.66.13-.04,0-.07,0-.11,0-2.31-7.19-9.44-12.27-17.49-12.27-6.89,0-13.15,3.66-16.26,9.41-5.15-.65-10.08,1.85-12.7,6.13h3.59c2.35-2.58,5.97-3.89,9.62-3.11.66.15,1.33-.19,1.62-.81,2.44-5.3,7.98-8.72,14.14-8.72,6.76,0,12.73,4.2,14.7,10.16-1.39.59-2.66,1.45-3.74,2.56-.56.57-.55,1.49.02,2.04.28.28.65.41,1.01.41s.75-.14,1.03-.43c1.07-1.09,2.38-1.86,3.81-2.27,0,0,.01,0,.02,0,.37-.11.74-.18,1.12-.24.05,0,.1-.02.15-.02.38-.05.76-.08,1.13-.08,4.81,0,8.73,3.92,8.73,8.73,0,8.18-6.61,8.7-7.3,8.73l-8.63-.02v2.89l8.67.02c3.51-.12,10.15-2.7,10.15-11.62,0-6.41-5.21-11.62-11.62-11.62Z"></path>
    </g>
  </g>
</svg>